<?xml version="1.0" encoding="utf-8"?>
<!-- Generator: Adobe Illustrator 17.1.0, SVG Export Plug-In . SVG Version: 6.00 Build 0)  -->
<!DOCTYPE svg PUBLIC "-//W3C//DTD SVG 1.1//EN" "http://www.w3.org/Graphics/SVG/1.1/DTD/svg11.dtd">
<svg version="1.1" id="Layer_1" xmlns="http://www.w3.org/2000/svg" xmlns:xlink="http://www.w3.org/1999/xlink" x="0px" y="0px"
	 viewBox="0 0 34.7 34.2" enable-background="new 0 0 34.7 34.2" xml:space="preserve">
<g>
	<path fill="#FFFFFF" d="M32,26.4c0,0.2-0.1,0.4-0.2,0.5l-5,5c-0.2,0.1-0.3,0.2-0.5,0.2s-0.4-0.1-0.5-0.2L17,23.2l-8.7,8.7
		C8.2,32,8,32.1,7.8,32.1S7.5,32,7.3,31.9l-5-5c-0.1-0.2-0.2-0.3-0.2-0.5s0.1-0.4,0.2-0.5l8.7-8.7L2.3,8.4C2.2,8.3,2.1,8.1,2.1,7.9
		s0.1-0.4,0.2-0.5l5-5c0.2-0.1,0.3-0.2,0.5-0.2s0.4,0.1,0.5,0.2l8.7,8.7l8.7-8.7c0.2-0.1,0.3-0.2,0.5-0.2s0.4,0.1,0.5,0.2l5,5
		C31.9,7.6,32,7.7,32,7.9s-0.1,0.4-0.2,0.5l-8.7,8.7l8.7,8.7C31.9,26,32,26.2,32,26.4z"/>
</g>
</svg>
